ply
format ascii 1.0
comment Created by Blender 2.68 (sub 0) - www.blender.org, source file: 'hoop1.blend'
element vertex 96
property float x
property float y
property float z
property float nx
property float ny
property float nz
property float s
property float t
element face 116
property list uchar uint vertex_indices
end_header
-0.805799 -0.640437 -0.029406 0.000000 -0.000000 1.000000 0.997100 0.099781
0.794201 0.319563 -0.029405 0.000000 -0.000000 1.000000 1.997100 0.699781
-0.805799 0.319563 -0.029405 0.000000 -0.000000 1.000000 0.997100 0.699781
0.794201 0.319563 -0.029405 -0.000000 0.000000 1.000000 0.997100 0.699781
0.314201 0.799563 -0.029405 -0.000000 0.000000 1.000000 0.697100 0.999781
-0.325799 0.799563 -0.029405 -0.000000 0.000000 1.000000 0.297100 0.999781
-0.805799 0.319563 -0.189405 0.000000 0.000000 -1.000000 0.997100 0.699781
0.794201 0.319563 -0.189405 0.000000 0.000000 -1.000000 1.997100 0.699781
-0.805799 -0.640437 -0.189406 0.000000 0.000000 -1.000000 0.997100 0.099781
0.794201 0.319563 -0.189405 0.000000 -0.000000 -1.000000 0.997100 0.699781
-0.805799 0.319563 -0.189405 0.000000 -0.000000 -1.000000 -0.002900 0.699781
-0.325799 0.799563 -0.189405 0.000000 -0.000000 -1.000000 0.297100 0.999781
-0.325799 0.799563 -0.029405 0.000000 1.000000 -0.000000 0.297100 0.514703
0.314201 0.799563 -0.029405 0.000000 1.000000 -0.000000 0.697100 0.514703
0.314201 0.799563 -0.189405 0.000000 1.000000 -0.000000 0.697100 0.614703
0.314201 0.799563 -0.029405 0.707107 0.707107 -0.000000 0.697100 0.514703
0.794201 0.319563 -0.029405 0.707107 0.707107 -0.000000 0.997100 0.514703
0.794201 0.319563 -0.189405 0.707107 0.707107 -0.000000 0.997100 0.614703
0.794201 -0.640437 -0.029406 0.000000 -1.000000 0.000000 0.997100 0.514703
-0.805799 -0.640437 -0.029406 0.000000 -1.000000 0.000000 -0.002900 0.514703
0.794201 -0.640437 -0.189406 0.000000 -1.000000 0.000000 0.997100 0.614703
-0.805799 -0.640437 -0.029406 -1.000000 -0.000000 0.000000 0.514703 0.099781
-0.805799 0.319563 -0.029405 -1.000000 -0.000000 0.000000 0.514703 0.699781
-0.805799 0.319563 -0.189405 -1.000000 -0.000000 0.000000 0.614703 0.699781
-0.805799 0.319563 -0.029405 -0.707107 0.707107 0.000000 0.997100 0.514703
-0.325799 0.799563 -0.029405 -0.707107 0.707107 0.000000 1.297100 0.514703
-0.325799 0.799563 -0.189405 -0.707107 0.707107 0.000000 1.297100 0.614703
0.794201 0.319563 -0.029405 1.000000 0.000000 0.000000 0.514703 0.699781
0.794201 -0.640437 -0.029406 1.000000 0.000000 0.000000 0.514703 0.099781
0.794201 -0.640437 -0.189406 1.000000 0.000000 0.000000 0.614703 0.099781
0.000264 -0.642164 -0.012282 0.000000 -0.688192 -0.725486 0.998496 0.489298
0.000264 -0.507110 -0.012282 0.000000 0.688192 -0.725486 0.998095 0.489298
0.304135 -0.642164 0.069140 0.362743 -0.688192 -0.628285 0.928391 0.438409
0.304135 -0.507110 0.069140 0.362743 0.688192 -0.628285 0.912627 0.438409
0.526585 -0.507110 0.291589 0.628285 0.688192 -0.362743 0.871063 0.299378
0.526585 -0.642164 0.291589 0.628285 -0.688192 -0.362743 0.889779 0.299378
0.608007 -0.507110 0.595460 0.725486 0.688192 0.000000 0.859829 0.109459
0.608007 -0.642164 0.595460 0.725486 -0.688192 0.000000 0.878539 0.109459
0.526585 -0.642164 0.899332 0.628285 -0.688192 0.362743 0.889779 -0.080461
0.526585 -0.507110 0.899332 0.628285 0.688192 0.362743 0.871063 -0.080461
0.304135 -0.507110 1.121781 0.362743 0.688192 0.628285 0.912627 -0.219491
0.304135 -0.642164 1.121781 0.362743 -0.688192 0.628285 0.928391 -0.219491
0.000264 -0.642164 1.203203 0.000000 -0.688192 0.725486 0.998496 -0.270380
0.000264 -0.507110 1.203203 0.000000 0.688192 0.725486 0.998095 -0.270380
-0.303607 -0.642164 1.121781 -0.362743 -0.688192 0.628285 1.069152 -0.219491
-0.303607 -0.642164 1.121781 -0.362743 -0.688192 0.628285 0.069152 -0.219491
-0.303607 -0.507110 1.121781 -0.362743 0.688192 0.628285 0.084572 -0.219491
-0.526056 -0.507110 0.899332 -0.628285 0.688192 0.362743 0.127105 -0.080461
-0.526056 -0.642164 0.899332 -0.628285 -0.688192 0.362743 0.108423 -0.080461
-0.607479 -0.642164 0.595461 -0.725486 -0.688192 0.000000 0.119876 0.109459
-0.607479 -0.507110 0.595461 -0.725486 0.688192 0.000000 0.138609 0.109459
-0.526057 -0.642164 0.291589 -0.628285 -0.688192 -0.362743 0.108423 0.299378
-0.303608 -0.642164 0.069140 -0.362743 -0.688192 -0.628285 1.069152 0.438409
-0.303608 -0.507110 0.069140 -0.362743 0.688192 -0.628285 1.084572 0.438409
-0.526057 -0.507110 0.291589 -0.628285 0.688192 -0.362743 0.127105 0.299378
-0.303608 -0.642164 0.069140 -0.362743 -0.688192 -0.628285 0.069152 0.438409
0.000264 -0.631437 0.084264 0.000000 -0.726707 0.686911 0.998471 0.428956
0.255862 -0.631437 0.152752 -0.343455 -0.726707 0.594897 0.937437 0.386152
0.000264 -0.517838 0.084264 0.000000 0.726707 0.686911 0.998135 0.428956
0.442973 -0.631437 0.339862 -0.594897 -0.726707 0.343455 0.901609 0.269208
0.442973 -0.517838 0.339862 -0.594897 0.726707 0.343455 0.886286 0.269208
0.511460 -0.631437 0.595460 -0.686911 -0.726707 0.000000 0.890714 0.109459
0.511460 -0.517838 0.595460 -0.686911 0.726707 0.000000 0.875022 0.109459
0.442973 -0.631437 0.851058 -0.594897 -0.726707 -0.343455 0.901609 -0.050290
0.442973 -0.517838 0.851058 -0.594897 0.726707 -0.343455 0.886286 -0.050290
0.255862 -0.631437 1.038169 -0.343455 -0.726707 -0.594897 0.937437 -0.167234
0.255862 -0.517838 1.038169 -0.343455 0.726707 -0.594897 0.925481 -0.167234
0.000264 -0.631437 1.106656 0.000000 -0.726707 -0.686911 0.998471 -0.210039
0.000264 -0.517838 1.106656 0.000000 0.726707 -0.686911 0.998135 -0.210039
-0.255334 -0.631437 1.038169 0.343455 -0.726707 -0.594897 1.059935 -0.167234
-0.255334 -0.517838 1.038169 0.343455 0.726707 -0.594897 1.071520 -0.167234
-0.255334 -0.631437 1.038169 0.343455 -0.726707 -0.594897 0.059935 -0.167234
-0.442445 -0.631437 0.851058 0.594897 -0.726707 -0.343455 0.096341 -0.050290
-0.255334 -0.517838 1.038169 0.343455 0.726707 -0.594897 0.071520 -0.167234
-0.510932 -0.631437 0.595461 0.686911 -0.726707 0.000000 0.107440 0.109459
-0.442445 -0.517838 0.851058 0.594897 0.726707 -0.343455 0.111560 -0.050290
-0.442445 -0.631437 0.339863 0.594897 -0.726707 0.343455 0.096341 0.269207
-0.442445 -0.517838 0.339863 0.594897 0.726707 0.343455 0.111560 0.269207
-0.255334 -0.631437 0.152752 0.343455 -0.726707 0.594897 1.059936 0.386152
-0.255334 -0.631437 0.152752 0.343455 -0.726707 0.594897 0.059936 0.386152
-0.255334 -0.517838 0.152752 0.343455 0.726707 0.594897 1.071520 0.386152
-0.303608 -0.507110 0.069140 -0.362743 0.688192 -0.628285 0.084572 0.438409
-0.510932 -0.517838 0.595461 0.686911 0.726707 0.000000 0.123091 0.109459
-0.303607 -0.507110 1.121781 -0.362743 0.688192 0.628285 1.084572 -0.219491
-0.805799 0.319563 -0.029405 0.000000 0.000000 1.000000 -0.002900 0.699781
0.794201 -0.640437 -0.029406 0.000000 -0.000000 1.000000 1.997100 0.099781
0.314201 0.799563 -0.189405 0.000000 0.000000 -1.000000 0.697100 0.999781
-0.325799 0.799563 -0.189405 0.000000 1.000000 0.000000 0.297100 0.614703
0.314201 0.799563 -0.189405 0.707107 0.707107 0.000000 0.697100 0.614703
-0.805799 -0.640437 -0.189406 -1.000000 -0.000000 -0.000000 0.614703 0.099781
-0.805799 0.319563 -0.189405 -0.707107 0.707107 0.000000 0.997100 0.614703
0.794201 0.319563 -0.189405 1.000000 -0.000000 0.000000 0.614703 0.699781
0.255862 -0.517838 0.152752 -0.343455 0.726707 0.594897 0.925481 0.386152
-0.255334 -0.517838 0.152752 0.343455 0.726707 0.594897 0.071520 0.386152
-0.805799 -0.640437 -0.189406 0.000000 -1.000000 0.000000 -0.002900 0.614703
0.794201 -0.640437 -0.189406 0.000000 0.000000 -1.000000 1.997100 0.099781
3 0 1 2
3 3 4 5
3 6 7 8
3 9 10 11
3 12 13 14
3 15 16 17
3 18 19 20
3 21 22 23
3 24 25 26
3 27 28 29
3 30 31 32
3 32 33 34
3 35 34 36
3 37 36 38
3 38 39 40
3 41 40 42
3 42 43 44
3 45 46 47
3 48 47 49
3 49 50 51
3 52 53 31
3 51 54 55
3 56 57 58
3 57 59 60
3 59 61 62
3 61 63 64
3 63 65 66
3 65 67 68
3 67 69 70
3 71 72 73
3 72 74 75
3 74 76 77
3 78 56 58
3 76 79 77
3 31 53 80
3 30 32 56
3 81 54 77
3 54 50 77
3 50 47 82
3 47 46 75
3 83 43 70
3 43 40 68
3 40 39 66
3 39 36 64
3 36 34 60
3 34 33 60
3 52 30 56
3 51 55 76
3 49 51 74
3 48 49 74
3 45 48 72
3 42 44 69
3 41 42 67
3 38 41 65
3 37 38 61
3 35 37 59
3 32 35 59
3 33 31 58
3 47 75 82
3 84 3 5
3 85 1 0
3 86 9 11
3 87 12 14
3 88 15 17
3 37 61 59
3 89 21 23
3 90 24 26
3 91 27 29
3 36 39 38
3 35 32 34
3 37 35 36
3 54 81 55
3 41 38 40
3 57 92 58
3 51 76 74
3 48 45 47
3 40 43 42
3 74 82 75
3 30 52 31
3 79 93 77
3 92 57 60
3 60 59 62
3 62 61 64
3 64 63 66
3 66 65 68
3 68 67 70
3 43 68 70
3 43 83 44
3 82 74 77
3 80 78 58
3 55 79 76
3 58 31 80
3 19 94 20
3 93 81 77
3 46 73 75
3 39 64 66
3 47 50 49
3 36 62 64
3 38 63 61
3 33 92 60
3 40 66 68
3 62 36 60
3 72 75 73
3 78 52 56
3 32 57 56
3 31 33 32
3 72 48 74
3 71 45 72
3 67 42 69
3 65 41 67
3 63 38 65
3 50 82 77
3 50 54 51
3 57 32 59
3 92 33 58
3 7 95 8
