ply
format ascii 1.0
comment Created by Blender 2.68 (sub 0) - www.blender.org, source file: ''
element vertex 18
property float x
property float y
property float z
property float nx
property float ny
property float nz
property float s
property float t
element face 6
property list uchar uint vertex_indices
end_header
1.000000 -1.000000 -1.000000 0.000000 -1.000000 0.000000 0.000000 0.000000
1.000000 -1.000000 1.000000 0.000000 -1.000000 0.000000 0.000000 -1.000000
-1.000000 -1.000000 1.000000 0.000000 -1.000000 0.000000 -1.000000 -1.000000
1.000000 -1.000000 -1.000000 0.894427 0.447214 0.000000 0.000000 0.000000
-0.000000 1.000000 0.000000 0.894427 0.447214 0.000000 -0.500000 1.000000
1.000000 -1.000000 1.000000 0.894427 0.447214 0.000000 -1.000000 0.000000
1.000000 -1.000000 1.000000 -0.000000 0.447214 0.894427 0.000000 0.000000
-0.000000 1.000000 0.000000 -0.000000 0.447214 0.894427 -0.500000 1.000000
-1.000000 -1.000000 1.000000 -0.000000 0.447214 0.894427 -1.000000 0.000000
-1.000000 -1.000000 1.000000 -0.894427 0.447214 -0.000000 0.000000 0.000000
-0.000000 1.000000 0.000000 -0.894427 0.447214 -0.000000 0.500000 1.000000
-1.000000 -1.000000 -1.000000 -0.894427 0.447214 -0.000000 1.000000 0.000000
-0.000000 1.000000 0.000000 0.000000 0.447214 -0.894427 0.500000 0.000000
1.000000 -1.000000 -1.000000 0.000000 0.447214 -0.894427 1.000000 -1.000000
-1.000000 -1.000000 -1.000000 0.000000 0.447214 -0.894427 0.000000 -1.000000
-1.000000 -1.000000 -1.000000 0.000000 -1.000000 -0.000000 0.000000 0.000000
1.000000 -1.000000 -1.000000 0.000000 -1.000000 -0.000000 1.000000 -0.000000
-1.000000 -1.000000 1.000000 0.000000 -1.000000 -0.000000 -0.000000 -1.000000
3 0 1 2
3 3 4 5
3 6 7 8
3 9 10 11
3 12 13 14
3 15 16 17
